<svg xmlns="http://www.w3.org/2000/svg" xmlns:xlink="http://www.w3.org/1999/xlink" width="28" height="28"><defs><path d="M7.975 0h12.05c2.773 0 3.779.289 4.793.831a5.65 5.65 0 0 1 2.352 2.352c.542 1.014.831 2.019.831 4.793v12.05c0 2.773-.289 3.779-.831 4.793a5.65 5.65 0 0 1-2.352 2.352c-1.014.542-2.019.831-4.793.831H7.975c-2.773 0-3.779-.289-4.793-.831a5.65 5.65 0 0 1-2.352-2.352C.289 23.804 0 22.798 0 20.025V7.975c0-2.773.289-3.779.831-4.793A5.65 5.65 0 0 1 3.183.831C4.196.289 5.202 0 7.975 0z" id="A"/><linearGradient x1="50%" y1="0%" x2="50%" y2="100%" id="B"><stop stop-color="#fff" stop-opacity=".08" offset="0%"/><stop stop-opacity=".2" offset="100%"/></linearGradient><path id="C" d="M0 0h28v28H0z"/><linearGradient x1="49.9949461%" y1="306.381058%" x2="49.9949461%" y2="28.6681792%" id="D"><stop stop-color="#fb3655" offset="0%"/><stop stop-color="#fff" offset="100%"/></linearGradient><linearGradient x1="50.0025311%" y1="-174.27944%" x2="50.0025311%" y2="72.6612172%" id="E"><stop stop-color="#fb3655" offset="0%"/><stop stop-color="#fc516c" offset="10%"/><stop stop-color="#fd8ea0" offset="33%"/><stop stop-color="#febfc9" offset="55%"/><stop stop-color="#fee2e6" offset="74%"/><stop stop-color="#fff7f8" offset="90%"/><stop stop-color="#fff" offset="100%"/></linearGradient><linearGradient x1="53.0777445%" y1="-62.0606123%" x2="49.3644725%" y2="73.0223066%" id="F"><stop stop-color="#fb3655" offset="0%"/><stop stop-color="#fc516c" offset="10%"/><stop stop-color="#fd8ea0" offset="33%"/><stop stop-color="#febfc9" offset="55%"/><stop stop-color="#fee2e6" offset="74%"/><stop stop-color="#fff7f8" offset="90%"/><stop stop-color="#fff" offset="100%"/></linearGradient><linearGradient x1="52.488719%" y1="-23.8391946%" x2="49.4850332%" y2="65.169982%" id="G"><stop stop-color="#fb3655" offset="0%"/><stop stop-color="#fc516c" offset="10%"/><stop stop-color="#fd8ea0" offset="33%"/><stop stop-color="#febfc9" offset="55%"/><stop stop-color="#fee2e6" offset="74%"/><stop stop-color="#fff7f8" offset="90%"/><stop stop-color="#fff" offset="100%"/></linearGradient><linearGradient x1="46.9188109%" y1="-62.0606123%" x2="50.6320829%" y2="73.0223066%" id="H"><stop stop-color="#fb3655" offset="0%"/><stop stop-color="#fc516c" offset="10%"/><stop stop-color="#fd8ea0" offset="33%"/><stop stop-color="#febfc9" offset="55%"/><stop stop-color="#fee2e6" offset="74%"/><stop stop-color="#fff7f8" offset="90%"/><stop stop-color="#fff" offset="100%"/></linearGradient><linearGradient x1="47.5078365%" y1="-23.8391946%" x2="50.5115222%" y2="65.169982%" id="I"><stop stop-color="#fb3655" offset="0%"/><stop stop-color="#fc516c" offset="10%"/><stop stop-color="#fd8ea0" offset="33%"/><stop stop-color="#febfc9" offset="55%"/><stop stop-color="#fee2e6" offset="74%"/><stop stop-color="#fff7f8" offset="90%"/><stop stop-color="#fff" offset="100%"/></linearGradient></defs><g fill="none" fill-rule="evenodd"><mask id="J" fill="#fff"><use xlink:href="#A"/></mask><g mask="url(#J)"><use fill="#fb3353" xlink:href="#C"/><use fill="url(#B)" xlink:href="#C"/><g transform="translate(5.897 4.984)" fill-rule="nonzero"><path d="M15.142 0H1.075C.482 0 .001.481.001 1.074v16.551c0 .364.183.703.488.902s.69.229 1.022.081l6.161-2.738c.278-.124.596-.124.874 0l6.16 2.738c.333.148.718.117 1.023-.081s.489-.538.488-.902V1.074c0-.285-.113-.559-.315-.76S15.427 0 15.142 0zm-1.781 7.254l-2.206 2.15c-.09.088-.13.214-.109.338l.521 3.036c.024.143-.035.287-.152.372s-.272.097-.401.03l-2.726-1.434c-.111-.058-.244-.058-.355 0l-2.727 1.434c-.129.067-.284.055-.401-.03s-.176-.229-.152-.372l.521-3.036c.021-.124-.02-.25-.109-.338l-2.207-2.15c-.103-.102-.14-.253-.095-.39s.163-.238.306-.26l3.048-.443a.38.38 0 0 0 .287-.208L7.767 3.19c.065-.129.197-.21.341-.21s.276.081.341.21l1.363 2.762a.38.38 0 0 0 .287.208l3.048.443c.143.021.262.122.307.259s.009.289-.094.39z" fill="url(#D)"/><path d="M13.473 18.06l1.232.546h0c.022.01.044.016.066.025a1.99 1.99 0 0 0 .362.068c.286.002.562-.11.765-.312s.318-.476.318-.763v-1.582l-5.204-2.863-2.726-1.434c-.111-.058-.244-.058-.355 0l-2.727 1.434L0 16.04v1.584c-.001.364.183.704.488.902s.69.229 1.023.081h0l1.54-.685 4.62-2.053c.278-.124.596-.124.874 0l4.928 2.19z" fill="url(#E)" style="mix-blend-mode:multiply"/><path fill="url(#F)" style="mix-blend-mode:multiply" d="M16.217 16.043l-5.186-2.857-2.745-1.44 7.93 5.824z"/><path fill="url(#G)" style="mix-blend-mode:multiply" d="M16.217 16.043l-5.192-2.857-2.739-1.44 7.93 4.743z"/><path fill="url(#H)" style="mix-blend-mode:multiply" d="M.001 16.043l5.186-2.857 2.745-1.44-7.93 5.824z"/><path fill="url(#I)" style="mix-blend-mode:multiply" d="M.001 16.043l5.191-2.857 2.739-1.44-7.93 4.743z"/></g></g></g></svg>